<?xml version="1.0" encoding="UTF-8"?>
<svg xmlns="http://www.w3.org/2000/svg" width="29" height="26" viewBox="0 0 29 26" fill="none">
  <path fill-rule="evenodd" clip-rule="evenodd" d="M22.5725 5.33775C18.8382 1.85796 13.8713 2.28205 9.75921 5.04059C9.70786 5.09861 9.38872 5.26175 9.74447 4.75414C17.6387 -3.79681 32.1581 7.87878 24.0476 17.608C25.8633 13.7439 26.3183 8.82847 22.5728 5.33783L22.5725 5.33775Z" fill="#06D889"></path>
  <path fill-rule="evenodd" clip-rule="evenodd" d="M19.2353 1.30735C6.40703 -2.4878 -4.61257 17.1772 9.67553 26C-6.35858 19.1524 1.51732 -1.64344 15.6329 0.103797C16.7849 0.245095 18.5493 0.785265 19.2353 1.30719L19.2353 1.30735Z" fill="#06D889"></path>
  <path fill-rule="evenodd" clip-rule="evenodd" d="M22.6212 13.9371C22.6212 18.1782 19.1619 21.6254 14.9028 21.6254C10.6401 21.6254 7.18113 18.1781 7.18113 13.9371C7.18113 9.69595 10.6405 6.24877 14.9028 6.24877C19.1619 6.24877 22.6212 9.696 22.6212 13.9371ZM9.24273 14.9557C8.66684 15.8294 9.34174 18.0478 11.341 19.3599C13.3219 20.672 15.8605 20.5742 16.4511 19.6971C17.027 18.8416 15.7981 19.3927 13.5531 18.5661C9.84806 17.2032 9.81511 14.0786 9.24273 14.9557Z" fill="#06D889"></path>
  <path fill-rule="evenodd" clip-rule="evenodd" d="M27.2696 9.01759C32.519 19.0111 17.9484 31.8435 7.79066 22.7593C6.49203 21.6066 5.91986 20.4938 4.97348 19.0474C12.8716 29.8531 30.2523 21.3165 27.1341 9.17669C27.0204 8.73075 27.0938 8.69092 27.2698 9.01719L27.2696 9.01759Z" fill="#06D889"></path>
</svg>
